<svg width="512" height="512" xmlns="http://www.w3.org/2000/svg">

 <g>
  <title>background</title>
  <rect fill="none" id="canvas_background" height="402" width="582" y="-1" x="-1"/>
 </g>
 <g>
  <title>Layer 1</title>
  <rect fill="#009432" id="svg_2" y="294.671" x="369.059" width="10.76" height="10.759"/>
  <rect fill="#009432" id="svg_3" y="261.273" x="413.068" width="10.76" height="10.759"/>
  <rect fill="#009432" id="svg_4" y="182.032" x="336.197" width="10.76" height="10.759"/>
  <rect fill="#009432" id="svg_5" y="223.655" x="360.828" width="10.76" height="10.759"/>
  <rect fill="#009432" id="svg_6" y="335.9" x="407.689" width="10.76" height="10.759"/>
  <rect fill="#009432" id="svg_7" y="333.009" x="129.749" width="10.759" transform="matrix(0.7072,0.7071,-0.7071,0.7072,278.8338,3.552) " height="10.759"/>
  <rect fill="#009432" id="svg_8" y="429.445" x="129.749" width="10.759" transform="matrix(0.7071,-0.7071,0.7071,0.7071,-267.889,222.9073) " height="10.759"/>
  <rect fill="#009432" id="svg_9" y="237.422" x="129.749" width="10.76" transform="matrix(-0.7071,0.7071,-0.7071,-0.7071,402.3633,318.9478) " height="10.76"/>
  <rect fill="#009432" id="svg_10" y="285.216" x="81.956" width="10.759" transform="matrix(0.7071,-0.7072,0.7072,0.7071,-179.9111,146.886) " height="10.759"/>
  <rect fill="#009432" id="svg_11" y="285.216" x="177.922" width="10.759" transform="matrix(-0.7071,0.7071,-0.7071,-0.7071,518.3967,366.4635) " height="10.759"/>
  <rect fill="#009432" id="svg_12" y="383.078" x="81.956" width="10.759" transform="matrix(-0.7071,0.7071,-0.7071,-0.7071,423.7719,601.3829) " height="10.759"/>
  <rect fill="#009432" id="svg_13" y="383.079" x="177.922" width="10.759" transform="matrix(-0.7071,-0.7071,0.7071,-0.7071,38.2336,792.7529) " height="10.759"/>
  <path fill="#009432" id="svg_14" d="m319.275,131.191l-5,0l0,24.38l0,115.124l10,0l0,-105.027c67.633,2.633 121.84,58.476 121.84,126.743c0,46.61 -25.617,89.241 -66.055,111.34c1.398,-6.638 2.369,-12.86 2.748,-18.122c1.344,-18.597 -4.574,-37.016 -16.234,-50.533c-7.242,-8.395 -16.08,-14.326 -25.754,-17.475c8.195,-13.436 6.908,-30.433 6.838,-31.266l-0.352,-4.213l-4.213,-0.354c-0.973,-0.082 -24,-1.849 -37.654,11.807c-2.174,2.174 -4.123,4.432 -5.848,6.725c-2.641,-15.066 -9.916,-29.198 -20.879,-40.018l-7.023,7.117c12.09,11.932 19.025,28.518 19.025,45.504l0,7.706c-6.232,-3.097 -12.85,-4.941 -19.725,-5.465c-1.336,-0.103 -2.686,-0.153 -4.014,-0.153c-15.992,0 -30.952,7.133 -42.125,20.083c-6.192,7.179 -10.745,15.746 -13.471,24.981l-21.691,-21.694l37.845,-37.845l0,13.324l10,0l0,-47.98c0,-20.968 -8.245,-40.614 -23.216,-55.316c-10.215,-10.036 -22.749,-16.896 -36.37,-20.111c0.853,-59.39 28.904,-82.198 29.175,-82.411l11.604,-8.958l-14.659,0c-9.855,0 -18.875,1.226 -27.027,3.632c5.087,-49.938 29.303,-69.572 29.542,-69.76l11.605,-8.958l-14.66,0c-40.062,0 -60.159,19.258 -70.233,38.201c-11.614,-13.987 -28.724,-21.084 -51.023,-21.084l-14.655,0l11.6,8.958c0.14,0.108 12.608,10.002 19.715,34.832c-11.097,-3.954 -23.649,-5.969 -37.631,-5.969l-14.659,0l11.603,8.958c0.303,0.233 30.308,24.073 35.498,86.474l9.965,-0.829c-3.733,-44.891 -19.62,-71.237 -30.045,-84.001c21.312,2.152 38.215,10.07 50.365,23.618c22.384,24.96 22.881,62.596 22.348,75.207l-37.35,0c-20.388,0 -39.643,7.854 -54.215,22.115c-15.035,14.7 -23.315,34.377 -23.315,55.405l0,144.601c0,21.129 8.352,40.877 23.516,55.606c14.544,14.131 33.727,21.914 54.015,21.914l50.99,0c20.326,0 39.536,-7.813 54.087,-21.998c4.656,-4.531 8.675,-9.568 12.029,-15.042c11.175,24.581 24.681,37.036 40.212,37.036c9.771,0 18.955,-6.064 26.795,-11.75c1.557,-1.128 3.566,-1.097 5.119,0.079c6.508,4.925 15.422,11.671 25.605,11.671c16.398,0 30.754,-13.934 42.699,-41.422c31.939,-9.796 60.637,-29.79 81.006,-56.508c21.547,-28.26 32.938,-62.029 32.938,-97.657c0,-88.899 -72.328,-161.222 -161.231,-161.222zm-196.522,-32.998c-3.796,-3.097 -7.873,-5.835 -12.246,-8.188c-3.923,-18.122 -10.692,-30.44 -16.233,-38.028c15.153,2.306 26.673,9.231 34.368,20.665c-3.29,8.935 -5.017,17.869 -5.889,25.551zm189.757,202.474c7.254,-7.253 18.873,-8.724 25.23,-8.95c-0.203,5.896 -1.49,16.305 -7.525,23.611c-1.902,-0.207 -3.824,-0.316 -5.764,-0.316c-1.326,0 -2.678,0.051 -4.014,0.153c-6.805,0.519 -13.354,2.333 -19.529,5.372c0.867,-5.473 4.69,-12.957 11.602,-19.87zm-129.89,30.644l-40.95,-40.955l40.953,-40.954l40.953,40.952l-40.956,40.957zm-55.096,55.095l-40.958,40.958l-40.953,-40.952l40.958,-40.959l40.953,40.953zm-81.905,-96.047l40.96,-40.959l40.95,40.956l-40.958,40.957l-40.952,-40.954zm48.023,48.024l40.957,-40.957l40.949,40.955l-40.954,40.955l-40.952,-40.953zm133.893,-72.502l0,14.29l-37.841,-37.84l21.017,-21.017c10.873,12.331 16.824,27.967 16.824,44.567zm-95.471,-158.725c0.413,-8.847 1.97,-21.21 6.791,-33.223c9.254,-23.003 26.874,-36.164 52.461,-39.235c-9.04,11.584 -21.873,34.288 -24.673,71.942c-4.776,2.252 -9.177,5.002 -13.181,8.251l6.301,7.766c8.523,-6.916 19.293,-11.214 32.117,-12.836c-9.48,12.292 -23.021,37.065 -23.922,78.948c-2.623,-0.266 -5.272,-0.408 -7.943,-0.408l-3.602,0c0.631,-14.279 -0.122,-53.568 -24.349,-81.205zm27.951,91.205c16.113,0 31.39,5.641 43.556,15.951l-20.947,20.948l-36.899,-36.899l14.29,0zm15.537,43.97l-40.953,40.953l-40.949,-40.955l40.95,-40.951l40.952,40.953zm-66.527,-43.97l14.451,0l-36.895,36.899l-21.021,-21.024c12.16,-10.261 27.403,-15.875 43.465,-15.875zm-67.53,67.52c0,-16.655 5.981,-32.324 16.91,-44.658l21.106,21.109l-38.017,38.021l0,-14.472l0.001,0zm0,34.496l38.005,38.006l-38.006,38.006l0,-76.012l0.001,0zm0,110.104l0,-14.047l38,38l-20.911,20.911c-11.044,-12.368 -17.089,-28.113 -17.089,-44.864zm67.53,67.521c-15.966,0 -31.135,-5.551 -43.26,-15.696l20.801,-20.8l36.495,36.496l-14.036,0zm-15.389,-43.566l40.959,-40.959l40.96,40.961l-40.952,40.964l-40.967,-40.966zm66.379,43.566l-13.872,0l36.482,-36.494l20.724,20.725c-12.136,10.193 -27.332,15.769 -43.334,15.769zm50.505,-22.741l-20.824,-20.825l15.864,-15.869l-7.07,-7.07l-15.865,15.869l-40.959,-40.959l40.953,-40.953l26.33,26.334c-0.548,4.553 -0.665,9.191 -0.329,13.842c0.866,11.973 5.151,33.22 12.602,53.348c-2.771,5.942 -6.357,11.396 -10.702,16.283zm148.003,-15.336c-7.205,17.369 -19.068,38.073 -34.66,38.073c-6.313,0 -12.598,-4.367 -19.57,-9.645c-2.578,-1.951 -5.619,-2.93 -8.658,-2.93c-2.926,0 -5.854,0.908 -8.365,2.729c-6.57,4.764 -14.148,9.846 -20.926,9.846c-15.606,0 -27.151,-20.758 -34.088,-38.172c-8.135,-20.418 -12.784,-42.781 -13.661,-54.918c-1.155,-15.979 3.886,-31.753 13.83,-43.281c10.006,-11.599 23.602,-17.566 37.806,-16.491c6.59,0.503 12.906,2.491 18.775,5.911c0.551,0.322 1.123,0.592 1.709,0.827l0,13.42l10,0l0,-13.421c0.584,-0.235 1.156,-0.506 1.709,-0.826c5.867,-3.42 12.184,-5.408 18.773,-5.911c14.238,-1.077 27.799,4.894 37.805,16.491c9.945,11.529 14.986,27.305 13.832,43.281c-1.057,14.627 -6.941,37.252 -14.311,55.017zm12.821,-5.506c2.084,-5.827 3.988,-11.904 5.627,-17.917c48.152,-22.413 79.145,-70.843 79.145,-124.091c0,-73.779 -58.693,-134.097 -131.84,-136.739l0,-14.399c81.082,2.649 146.23,69.43 146.23,151.138c0,63.424 -40.289,120.393 -99.162,142.008z"/>
  <path fill="#009432" id="svg_15" d="m344.496,352.018c7.215,8.363 10.865,19.935 10.012,31.743c-0.387,5.345 -1.584,12.267 -3.461,20.019l9.719,2.354c2.006,-8.279 3.291,-15.766 3.717,-21.651c1.043,-14.43 -3.482,-28.644 -12.414,-38.998l-7.573,6.533z"/>
  <path fill="#009432" id="svg_16" d="m341.369,433.83l9.236,3.83c2.113,-5.096 4.133,-10.689 6.004,-16.629l-9.537,-3.004c-1.783,5.66 -3.703,10.977 -5.703,15.803z"/>
  <polygon fill="#009432" id="svg_17" points="430.838,130.508 440.838,130.508 440.838,118.12 453.227,118.12 453.227,108.12 440.838,108.12 440.838,95.731    430.838,95.731 430.838,108.12 418.449,108.12 418.449,118.12 430.838,118.12  "/>
  <polygon fill="#009432" id="svg_18" points="256.672,210.75 266.672,210.75 266.672,198.361 279.061,198.361 279.061,188.361 266.672,188.361 266.672,175.973    256.672,175.973 256.672,188.361 244.283,188.361 244.283,198.361 256.672,198.361  "/>
  <polygon fill="#009432" id="svg_19" points="297.846,93.352 307.846,93.352 307.846,80.963 320.234,80.963 320.234,70.963 307.846,70.963 307.846,58.574    297.846,58.574 297.846,70.963 285.457,70.963 285.457,80.963 297.846,80.963  "/>
 </g>
</svg>