<svg width="96" height="96" xmlns="http://www.w3.org/2000/svg">

 <g>
  <title>background</title>
  <rect fill="none" id="canvas_background" height="402" width="582" y="-1" x="-1"/>
 </g>
 <g>
  <title>Layer 1</title>
  <path fill="#009432" id="svg_1" d="m34.571,61l-2.571,6l2.285,-0.457c1.806,-0.361 3.642,-0.543 5.484,-0.543l16.462,0c1.841,0 3.678,0.182 5.484,0.543l2.285,0.457l-2.571,-6l-4.429,0l0,-2l4.154,0l0.146,-0.95c1.074,-6.982 1.018,-14.086 -0.14,-21.05l-20.16,0l0,-2l20.333,0l2.667,-8c-3.303,1.321 -6.828,2 -10.385,2l-11.23,0c-3.557,0 -7.082,-0.679 -10.385,-2l2.667,8l3.333,0l0,2l-3.16,0c-1.157,6.964 -1.214,14.069 -0.14,21.05l0.146,0.95l18.154,0l0,2l-18.429,0zm14.429,-10.069l0,4.069l-2,0l0,-4.069c-3.945,-0.493 -7,-3.852 -7,-7.931c4.079,0 7.438,3.055 7.931,7l0.138,0c0.493,-3.945 3.852,-7 7.931,-7c0,4.079 -3.055,7.438 -7,7.931z"/>
  <path fill="#009432" id="svg_2" d="m58,12c0,-5.523 -4.477,-10 -10,-10s-10,4.477 -10,10c0,5.523 4.477,10 10,10s10,-4.477 10,-10zm-9,2.41l0,3.59l-2,0l0,-3.59c-2.837,-0.477 -5,-2.938 -5,-5.91c2.795,0 5.136,1.914 5.803,4.5l0.393,0c0.667,-2.586 3.009,-4.5 5.803,-4.5c0.001,2.972 -2.162,5.433 -4.999,5.91z"/>
  <path fill="#009432" id="svg_3" d="m84,38c-5.523,0 -10,4.477 -10,10c0,5.523 4.477,10 10,10s10,-4.477 10,-10c0,-5.523 -4.477,-10 -10,-10zm1,12.41l0,3.59l-2,0l0,-3.59c-2.837,-0.477 -5,-2.938 -5,-5.91c2.795,0 5.136,1.914 5.803,4.5l0.393,0c0.667,-2.586 3.009,-4.5 5.803,-4.5c0.001,2.972 -2.162,5.433 -4.999,5.91z"/>
  <path fill="#009432" id="svg_4" d="m22,48c0,-5.523 -4.477,-10 -10,-10s-10,4.477 -10,10c0,5.523 4.477,10 10,10s10,-4.477 10,-10zm-9,2.41l0,3.59l-2,0l0,-3.59c-2.837,-0.477 -5,-2.938 -5,-5.91c2.795,0 5.136,1.914 5.803,4.5l0.393,0c0.667,-2.586 3.009,-4.5 5.803,-4.5c0.001,2.972 -2.162,5.433 -4.999,5.91z"/>
  <rect fill="#009432" id="svg_5" y="24" x="47" width="2" height="3"/>
  <rect fill="#009432" id="svg_6" y="47" x="24" width="7" height="2"/>
  <rect fill="#009432" id="svg_7" y="47" x="65" width="7" height="2"/>
  <rect fill="#009432" id="svg_8" y="78" x="18" width="8" height="16"/>
  <rect fill="#009432" id="svg_9" y="81" x="34" width="8" height="13"/>
  <rect fill="#009432" id="svg_10" y="88" x="66" width="8" height="6"/>
  <rect fill="#009432" id="svg_11" y="84" x="50" width="8" height="10"/>
  <path fill="#009432" id="svg_12" d="m78.707,75.293l-1.414,1.414l3.224,3.224c-9.915,-0.321 -24.089,-1.466 -39.297,-4.907c-8.062,-1.824 -16.097,-4.168 -23.883,-6.966l-0.676,1.883c7.863,2.825 15.977,5.191 24.118,7.034c15.294,3.46 29.545,4.621 39.547,4.951l-3.966,3.305l1.281,1.537l6,-5c0.216,-0.181 0.346,-0.442 0.358,-0.724c0.013,-0.28 -0.093,-0.554 -0.292,-0.752l-5,-4.999z"/>
 </g>
</svg>